<?xml version="1.0" encoding="UTF-8"?>
<svg width="1214px" height="866px" viewBox="0 0 1214 866" version="1.1" xmlns="http://www.w3.org/2000/svg" xmlns:xlink="http://www.w3.org/1999/xlink">
    <!-- Generator: Sketch 51.2 (57519) - http://www.bohemiancoding.com/sketch -->
    <title>strike zone</title>
    <desc>Created with Sketch.</desc>
    <defs></defs>
    <g id="strike-zone" stroke="none" stroke-width="1" fill="none" fill-rule="evenodd">
        <polygon id="Page-1" fill="#FFFFFF" points="-1 866 1214 866 1214 0 -1 0"></polygon>
        <polygon id="Path-4" stroke="#000000" stroke-width="4" fill-rule="nonzero" points="776.286052 673 704.484987 695.96416 698 719.877548 698 726.362535 855.328125 726.362535 855.328125 717.101268 848.574331 695.96416"></polygon>
        <g id="Group" transform="translate(266.000000, 581.000000)" fill-rule="nonzero" stroke="#000000" stroke-width="4">
            <path d="M510,0 L585.15625,0 L617.511719,47.778503 L810.369991,47.778503 L1020.46289,179.311341 L643.983339,179.311341 L577.462891,47.778503 L595.828125,47.778503 L573.402344,10.8203125 L510,10.8203125 L447.060547,10.8203125 L424.634766,47.778503 L443,47.778503 L376.479552,179.311341 L0,179.311341 L210.0929,47.778503 L402.951172,47.778503 L435.306641,0 L510,0 Z" id="Combined-Shape"></path>
            <polygon id="Path-5" points="58 163.449219 217.730469 60 417.425781 60 363.535156 163.449219"></polygon>
            <polygon id="Path-5" transform="translate(782.712891, 111.724609) scale(-1, 1) translate(-782.712891, -111.724609) " points="603 163.449219 762.730469 60 962.425781 60 908.535156 163.449219"></polygon>
        </g>
        <path d="M723.436,549.5 L442.564,549.5" id="Line" stroke="#4A4A4A" stroke-width="2" stroke-linecap="square" fill-rule="nonzero"></path>
        <path d="M723.436,355.5 L442.564,355.5" id="Line-Copy-2" stroke="#4A4A4A" stroke-width="2" stroke-linecap="square" fill-rule="nonzero"></path>
        <path d="M231.487305,542 L228.953125,542 L228.953125,531.863281 L217.322266,531.863281 L217.322266,542 L214.788086,542 L214.788086,520.334961 L217.322266,520.334961 L217.322266,529.636719 L228.953125,529.636719 L228.953125,520.334961 L231.487305,520.334961 L231.487305,542 Z M237.917969,534.001953 C237.917969,535.90626 238.340328,537.432123 239.185059,538.57959 C240.029789,539.727057 241.262687,540.300781 242.883789,540.300781 C244.48536,540.300781 245.693844,539.729498 246.509277,538.586914 C247.324711,537.44433 247.732422,535.90626 247.732422,533.972656 C247.732422,532.009756 247.329594,530.464361 246.523926,529.336426 C245.718258,528.20849 244.490243,527.644531 242.839844,527.644531 C241.238273,527.644531 240.017582,528.220697 239.177734,529.373047 C238.337886,530.525396 237.917969,532.06835 237.917969,534.001953 Z M250.266602,533.958008 C250.266602,536.448255 249.602546,538.467277 248.274414,540.015137 C246.946282,541.562996 245.110363,542.336914 242.766602,542.336914 C240.510731,542.336914 238.716315,541.555672 237.383301,539.993164 C236.050286,538.430656 235.383789,536.42384 235.383789,533.972656 C235.383789,531.472644 236.052728,529.45118 237.390625,527.908203 C238.728522,526.365227 240.564441,525.59375 242.898438,525.59375 C245.193371,525.59375 246.995111,526.367668 248.303711,527.915527 C249.612311,529.463387 250.266602,531.477527 250.266602,533.958008 Z M258.044922,542.292969 C256.482414,542.292969 255.376468,541.873051 254.727051,541.033203 C254.077633,540.193355 253.75293,538.733409 253.75293,536.65332 L253.75293,519.69043 L256.18457,519.543945 L256.18457,535.686523 C256.18457,536.350589 256.191894,536.88281 256.206543,537.283203 C256.221191,537.683596 256.257812,538.076658 256.316406,538.462402 C256.375,538.848146 256.453125,539.138671 256.550781,539.333984 C256.648438,539.529298 256.790038,539.707519 256.975586,539.868652 C257.161134,540.029786 257.383299,540.137207 257.64209,540.190918 C257.90088,540.244629 258.220701,540.271484 258.601562,540.271484 C258.914064,540.271484 259.529292,540.212891 260.447266,540.095703 L260.579102,542.043945 C259.573237,542.209962 258.728519,542.292969 258.044922,542.292969 Z M266.379883,542.292969 C264.817375,542.292969 263.711429,541.873051 263.062012,541.033203 C262.412594,540.193355 262.087891,538.733409 262.087891,536.65332 L262.087891,519.69043 L264.519531,519.543945 L264.519531,535.686523 C264.519531,536.350589 264.526855,536.88281 264.541504,537.283203 C264.556152,537.683596 264.592773,538.076658 264.651367,538.462402 C264.709961,538.848146 264.788085,539.138671 264.885742,539.333984 C264.983399,539.529298 265.124999,539.707519 265.310547,539.868652 C265.496095,540.029786 265.71826,540.137207 265.977051,540.190918 C266.235841,540.244629 266.555662,540.271484 266.936523,540.271484 C267.249025,540.271484 267.864253,540.212891 268.782227,540.095703 L268.914062,542.043945 C267.908198,542.209962 267.06348,542.292969 266.379883,542.292969 Z M272.180664,534.001953 C272.180664,535.90626 272.603023,537.432123 273.447754,538.57959 C274.292485,539.727057 275.525383,540.300781 277.146484,540.300781 C278.748055,540.300781 279.956539,539.729498 280.771973,538.586914 C281.587406,537.44433 281.995117,535.90626 281.995117,533.972656 C281.995117,532.009756 281.592289,530.464361 280.786621,529.336426 C279.980953,528.20849 278.752938,527.644531 277.102539,527.644531 C275.500969,527.644531 274.280278,528.220697 273.44043,529.373047 C272.600582,530.525396 272.180664,532.06835 272.180664,534.001953 Z M284.529297,533.958008 C284.529297,536.448255 283.865241,538.467277 282.537109,540.015137 C281.208978,541.562996 279.373059,542.336914 277.029297,542.336914 C274.773426,542.336914 272.979011,541.555672 271.645996,539.993164 C270.312982,538.430656 269.646484,536.42384 269.646484,533.972656 C269.646484,531.472644 270.315423,529.45118 271.65332,527.908203 C272.991218,526.365227 274.827137,525.59375 277.161133,525.59375 C279.456066,525.59375 281.257806,526.367668 282.566406,527.915527 C283.875007,529.463387 284.529297,531.477527 284.529297,533.958008 Z M301.755859,542 C299.499989,534.792933 298.103518,530.305673 297.566406,528.538086 C297.26367,529.61231 296.916994,530.774408 296.526367,532.024414 C296.13574,533.27442 295.793947,534.348628 295.500977,535.24707 C295.208006,536.145512 294.827151,537.30761 294.358398,538.733398 C293.889646,540.159187 293.533204,541.248043 293.289062,542 L290.652344,542 L286.067383,525.930664 L288.601562,525.930664 L292.043945,539.084961 C292.522463,537.522453 293.928699,533.137731 296.262695,525.930664 L299.03125,525.930664 C301.35548,533.293982 302.722654,537.664056 303.132812,539.041016 L306.53125,525.930664 L309.036133,525.930664 L304.407227,542 L301.755859,542 Z M326.204102,527.629883 C324.651359,527.629883 323.462406,528.164545 322.637207,529.233887 C321.812008,530.303228 321.399414,531.873037 321.399414,533.943359 C321.399414,538.181662 322.996078,540.300781 326.189453,540.300781 C326.980473,540.300781 327.676267,540.137209 328.276855,539.810059 C328.877444,539.482909 329.351072,539.023929 329.697754,538.433105 C330.044435,537.842282 330.303222,537.175785 330.474121,536.433594 C330.64502,535.691403 330.730469,534.866215 330.730469,533.958008 C330.730469,532.727533 330.586427,531.653325 330.29834,530.735352 C330.010252,529.817378 329.519535,529.070315 328.826172,528.494141 C328.132809,527.917966 327.258794,527.629883 326.204102,527.629883 Z M326.453125,525.59375 C327.878913,525.59375 329.10937,525.955075 330.144531,526.677734 C331.179693,527.400394 331.956052,528.38183 332.473633,529.62207 C332.991214,530.862311 333.25,532.283195 333.25,533.884766 C333.25,535.54493 332.993655,537.004877 332.480957,538.264648 C331.968259,539.52442 331.1919,540.518063 330.151855,541.245605 C329.111811,541.973148 327.869148,542.336914 326.423828,542.336914 C325.35937,542.336914 324.3877,542.107424 323.508789,541.648438 C322.629878,541.189451 321.897464,540.564457 321.311523,539.773438 L321.0625,542 L318.967773,542 L318.967773,519.69043 L321.414062,519.543945 L321.414062,524.861328 C321.414062,526.169928 321.394531,527.292964 321.355469,528.230469 C321.921878,527.419918 322.656734,526.777834 323.560059,526.304199 C324.463383,525.830564 325.427729,525.59375 326.453125,525.59375 Z M343.005859,527.615234 C341.755853,527.615234 340.735356,528.057124 339.944336,528.940918 C339.153316,529.824711 338.689454,531.033195 338.552734,532.566406 L347.03418,532.566406 C347.03418,530.974601 346.675297,529.751469 345.95752,528.896973 C345.239743,528.042476 344.255866,527.615234 343.005859,527.615234 Z M343.489258,542.336914 C341.155262,542.336914 339.316901,541.594734 337.974121,540.110352 C336.631341,538.625969 335.959961,536.594739 335.959961,534.016602 C335.959961,531.526355 336.609369,529.507332 337.908203,527.959473 C339.207038,526.411613 340.916005,525.623047 343.035156,525.59375 C345.027354,525.59375 346.606928,526.274896 347.773926,527.637207 C348.940924,528.999519 349.524414,530.818348 349.524414,533.09375 C349.524414,533.210938 349.521973,533.42578 349.51709,533.738281 C349.512207,534.050783 349.509766,534.27539 349.509766,534.412109 L338.479492,534.412109 C338.508789,536.23829 338.979976,537.661616 339.893066,538.682129 C340.806157,539.702642 342.034172,540.212891 343.577148,540.212891 C345.276376,540.212891 346.98046,539.763676 348.689453,538.865234 L349.070312,540.842773 C347.439445,541.838872 345.579112,542.336914 343.489258,542.336914 Z M352.922852,542 L352.922852,525.930664 L354.973633,525.930664 L355.28125,528.230469 C355.916019,527.439449 356.709468,526.802249 357.661621,526.318848 C358.613774,525.835447 359.641596,525.59375 360.745117,525.59375 C362.600595,525.59375 363.972652,526.113764 364.861328,527.153809 C365.750004,528.193853 366.194336,529.792958 366.194336,531.951172 L366.194336,542 L363.748047,542 C363.748047,535.554655 363.743164,532.102541 363.733398,531.643555 C363.694336,530.27636 363.41846,529.275394 362.905762,528.640625 C362.393064,528.005856 361.536139,527.688477 360.334961,527.688477 C359.075189,527.688477 358.025395,527.991208 357.185547,528.59668 C356.345699,529.202151 355.798829,529.988276 355.544922,530.955078 C355.447265,531.609378 355.398438,532.361324 355.398438,533.210938 L355.398438,542 L352.922852,542 Z M376.580078,527.615234 C375.330072,527.615234 374.309574,528.057124 373.518555,528.940918 C372.727535,529.824711 372.263673,531.033195 372.126953,532.566406 L380.608398,532.566406 C380.608398,530.974601 380.249515,529.751469 379.531738,528.896973 C378.813961,528.042476 377.830084,527.615234 376.580078,527.615234 Z M377.063477,542.336914 C374.729481,542.336914 372.89112,541.594734 371.54834,540.110352 C370.20556,538.625969 369.53418,536.594739 369.53418,534.016602 C369.53418,531.526355 370.183587,529.507332 371.482422,527.959473 C372.781256,526.411613 374.490224,525.623047 376.609375,525.59375 C378.601572,525.59375 380.181147,526.274896 381.348145,527.637207 C382.515143,528.999519 383.098633,530.818348 383.098633,533.09375 C383.098633,533.210938 383.096191,533.42578 383.091309,533.738281 C383.086426,534.050783 383.083984,534.27539 383.083984,534.412109 L372.053711,534.412109 C372.083008,536.23829 372.554195,537.661616 373.467285,538.682129 C374.380376,539.702642 375.608391,540.212891 377.151367,540.212891 C378.850594,540.212891 380.554679,539.763676 382.263672,538.865234 L382.644531,540.842773 C381.013664,541.838872 379.153331,542.336914 377.063477,542.336914 Z M390.964844,540.359375 C392.126959,540.359375 393.149898,540.039554 394.033691,539.399902 C394.917485,538.760251 395.486327,537.898443 395.740234,536.814453 L395.740234,534.104492 C395.691406,534.104492 395.395999,534.128906 394.854004,534.177734 C394.312009,534.226563 393.958009,534.255859 393.791992,534.265625 C391.672841,534.451173 390.195805,534.797849 389.36084,535.305664 C388.525875,535.813479 388.108398,536.628901 388.108398,537.751953 C388.108398,538.611332 388.362302,539.26074 388.870117,539.700195 C389.377932,540.139651 390.076167,540.359375 390.964844,540.359375 Z M396.282227,542 C396.135741,541.374997 395.994141,540.701175 395.857422,539.978516 C394.968746,540.867192 394.133793,541.48242 393.352539,541.824219 C392.571285,542.166017 391.653326,542.336914 390.598633,542.336914 C389.094719,542.336914 387.886235,541.943852 386.973145,541.157715 C386.060054,540.371578 385.603516,539.241218 385.603516,537.766602 C385.603516,536.125968 386.226068,534.91016 387.471191,534.119141 C388.716315,533.328121 390.51073,532.834962 392.854492,532.639648 C393.176759,532.610351 393.662594,532.568848 394.312012,532.515137 C394.961429,532.461426 395.447264,532.419922 395.769531,532.390625 L395.769531,530.969727 C395.769531,529.836908 395.505862,528.997073 394.978516,528.450195 C394.451169,527.903318 393.621099,527.629883 392.488281,527.629883 C390.906242,527.629883 389.309578,528.020504 387.698242,528.801758 C387.649414,528.68457 387.522462,528.345218 387.317383,527.783691 C387.112304,527.222165 387.004883,526.931641 386.995117,526.912109 C387.708011,526.511717 388.555171,526.191896 389.536621,525.952637 C390.518071,525.713378 391.516596,525.59375 392.532227,525.59375 C394.53419,525.59375 395.977046,526.030757 396.86084,526.904785 C397.744633,527.778813 398.186523,529.265615 398.186523,531.365234 L398.186523,542 L396.282227,542 Z M407.532227,542.292969 C405.950187,542.292969 404.827152,541.90723 404.163086,541.135742 C403.49902,540.364254 403.147461,539.119149 403.108398,537.400391 L403.108398,527.74707 L400.720703,527.74707 L400.823242,526.135742 L403.09375,525.930664 L403.928711,522.253906 L405.540039,522.195312 L405.540039,525.930664 L410.007812,525.930664 L410.007812,527.74707 L405.540039,527.74707 L405.540039,536.960938 C405.540039,538.181647 405.725584,539.041013 406.09668,539.539062 C406.467775,540.037112 407.102535,540.286133 408.000977,540.286133 C408.323244,540.286133 409.021479,540.208009 410.095703,540.051758 L410.198242,541.985352 C409.036127,542.190431 408.147464,542.292969 407.532227,542.292969 Z M423.630859,542 L423.630859,532.288086 C423.630859,530.67675 423.374514,529.504886 422.861816,528.772461 C422.349119,528.040035 421.453131,527.673828 420.173828,527.673828 C418.943353,527.673828 417.905766,527.981442 417.061035,528.59668 C416.216304,529.211917 415.666993,530.007808 415.413086,530.984375 C415.325195,531.716801 415.28125,532.532222 415.28125,533.430664 L415.28125,542 L412.834961,542 L412.834961,519.69043 L415.28125,519.543945 L415.28125,526.077148 C415.28125,526.633792 415.261719,527.322262 415.222656,528.142578 C416.599616,526.443351 418.42577,525.59375 420.701172,525.59375 C424.285174,525.59375 426.077148,527.698221 426.077148,531.907227 L426.077148,542 L423.630859,542 Z M304.802734,580.292969 C303.220695,580.292969 302.09766,579.90723 301.433594,579.135742 C300.769528,578.364254 300.417969,577.119149 300.378906,575.400391 L300.378906,565.74707 L297.991211,565.74707 L298.09375,564.135742 L300.364258,563.930664 L301.199219,560.253906 L302.810547,560.195312 L302.810547,563.930664 L307.27832,563.930664 L307.27832,565.74707 L302.810547,565.74707 L302.810547,574.960938 C302.810547,576.181647 302.996092,577.041013 303.367188,577.539062 C303.738283,578.037112 304.373042,578.286133 305.271484,578.286133 C305.593752,578.286133 306.291987,578.208009 307.366211,578.051758 L307.46875,579.985352 C306.306635,580.190431 305.417972,580.292969 304.802734,580.292969 Z M320.901367,580 L320.901367,570.288086 C320.901367,568.67675 320.645022,567.504886 320.132324,566.772461 C319.619626,566.040035 318.723639,565.673828 317.444336,565.673828 C316.213861,565.673828 315.176274,565.981442 314.331543,566.59668 C313.486812,567.211917 312.937501,568.007808 312.683594,568.984375 C312.595703,569.716801 312.551758,570.532222 312.551758,571.430664 L312.551758,580 L310.105469,580 L310.105469,557.69043 L312.551758,557.543945 L312.551758,564.077148 C312.551758,564.633792 312.532227,565.322262 312.493164,566.142578 C313.870124,564.443351 315.696278,563.59375 317.97168,563.59375 C321.555682,563.59375 323.347656,565.698221 323.347656,569.907227 L323.347656,580 L320.901367,580 Z M332.678711,565.615234 C331.428705,565.615234 330.408207,566.057124 329.617188,566.940918 C328.826168,567.824711 328.362305,569.033195 328.225586,570.566406 L336.707031,570.566406 C336.707031,568.974601 336.348148,567.751469 335.630371,566.896973 C334.912594,566.042476 333.928717,565.615234 332.678711,565.615234 Z M333.162109,580.336914 C330.828113,580.336914 328.989753,579.594734 327.646973,578.110352 C326.304193,576.625969 325.632812,574.594739 325.632812,572.016602 C325.632812,569.526355 326.28222,567.507332 327.581055,565.959473 C328.879889,564.411613 330.588857,563.623047 332.708008,563.59375 C334.700205,563.59375 336.279779,564.274896 337.446777,565.637207 C338.613775,566.999519 339.197266,568.818348 339.197266,571.09375 C339.197266,571.210938 339.194824,571.42578 339.189941,571.738281 C339.185059,572.050783 339.182617,572.27539 339.182617,572.412109 L328.152344,572.412109 C328.181641,574.23829 328.652827,575.661616 329.565918,576.682129 C330.479008,577.702642 331.707024,578.212891 333.25,578.212891 C334.949227,578.212891 336.653312,577.763676 338.362305,576.865234 L338.743164,578.842773 C337.112297,579.838872 335.251964,580.336914 333.162109,580.336914 Z M350.110352,580 L350.110352,557.69043 L352.541992,557.543945 L352.541992,571.269531 C352.600586,571.210937 352.688476,571.113282 352.805664,570.976562 C352.922852,570.839843 353.015625,570.737305 353.083984,570.668945 C353.933598,569.741206 356.130842,567.495135 359.675781,563.930664 L362.78125,563.930664 L356.101562,570.698242 L363.25,580 L360.203125,580 L354.329102,572.089844 L352.541992,573.62793 L352.541992,580 L350.110352,580 Z M365.330078,580 L365.330078,563.930664 L367.380859,563.930664 L367.688477,566.230469 C368.323245,565.439449 369.116694,564.802249 370.068848,564.318848 C371.021001,563.835447 372.048823,563.59375 373.152344,563.59375 C375.007822,563.59375 376.379878,564.113764 377.268555,565.153809 C378.157231,566.193853 378.601562,567.792958 378.601562,569.951172 L378.601562,580 L376.155273,580 C376.155273,573.554655 376.150391,570.102541 376.140625,569.643555 C376.101562,568.27636 375.825686,567.275394 375.312988,566.640625 C374.80029,566.005856 373.943365,565.688477 372.742188,565.688477 C371.482416,565.688477 370.432621,565.991208 369.592773,566.59668 C368.752925,567.202151 368.206056,567.988276 367.952148,568.955078 C367.854492,569.609378 367.805664,570.361324 367.805664,571.210938 L367.805664,580 L365.330078,580 Z M388.987305,565.615234 C387.737298,565.615234 386.716801,566.057124 385.925781,566.940918 C385.134762,567.824711 384.670899,569.033195 384.53418,570.566406 L393.015625,570.566406 C393.015625,568.974601 392.656742,567.751469 391.938965,566.896973 C391.221188,566.042476 390.237311,565.615234 388.987305,565.615234 Z M389.470703,580.336914 C387.136707,580.336914 385.298347,579.594734 383.955566,578.110352 C382.612786,576.625969 381.941406,574.594739 381.941406,572.016602 C381.941406,569.526355 382.590814,567.507332 383.889648,565.959473 C385.188483,564.411613 386.89745,563.623047 389.016602,563.59375 C391.008799,563.59375 392.588373,564.274896 393.755371,565.637207 C394.922369,566.999519 395.505859,568.818348 395.505859,571.09375 C395.505859,571.210938 395.503418,571.42578 395.498535,571.738281 C395.493652,572.050783 395.491211,572.27539 395.491211,572.412109 L384.460938,572.412109 C384.490235,574.23829 384.961421,575.661616 385.874512,576.682129 C386.787602,577.702642 388.015617,578.212891 389.558594,578.212891 C391.257821,578.212891 392.961906,577.763676 394.670898,576.865234 L395.051758,578.842773 C393.42089,579.838872 391.560557,580.336914 389.470703,580.336914 Z M405.217773,565.615234 C403.967767,565.615234 402.94727,566.057124 402.15625,566.940918 C401.36523,567.824711 400.901368,569.033195 400.764648,570.566406 L409.246094,570.566406 C409.246094,568.974601 408.887211,567.751469 408.169434,566.896973 C407.451657,566.042476 406.46778,565.615234 405.217773,565.615234 Z M405.701172,580.336914 C403.367176,580.336914 401.528815,579.594734 400.186035,578.110352 C398.843255,576.625969 398.171875,574.594739 398.171875,572.016602 C398.171875,569.526355 398.821283,567.507332 400.120117,565.959473 C401.418952,564.411613 403.127919,563.623047 405.24707,563.59375 C407.239268,563.59375 408.818842,564.274896 409.98584,565.637207 C411.152838,566.999519 411.736328,568.818348 411.736328,571.09375 C411.736328,571.210938 411.733887,571.42578 411.729004,571.738281 C411.724121,572.050783 411.72168,572.27539 411.72168,572.412109 L400.691406,572.412109 C400.720703,574.23829 401.19189,575.661616 402.10498,576.682129 C403.018071,577.702642 404.246086,578.212891 405.789062,578.212891 C407.48829,578.212891 409.192374,577.763676 410.901367,576.865234 L411.282227,578.842773 C409.651359,579.838872 407.791026,580.336914 405.701172,580.336914 Z M419.924805,580.336914 C418.831049,580.336914 417.822759,580.219728 416.899902,579.985352 C415.977046,579.750975 415.227542,579.448244 414.651367,579.077148 L414.958984,577.011719 C416.589852,577.880864 418.191398,578.31543 419.763672,578.31543 C422.146496,578.31543 423.37207,577.475594 423.44043,575.795898 C423.44043,575.083004 423.186526,574.521486 422.678711,574.111328 C422.170896,573.70117 421.174812,573.24219 419.69043,572.734375 L418.474609,572.30957 C417.068352,571.840818 416.064944,571.259769 415.464355,570.566406 C414.863767,569.873043 414.558594,569.008794 414.548828,567.973633 C414.548828,566.713861 415.054194,565.668949 416.064941,564.838867 C417.075689,564.008785 418.459952,563.59375 420.217773,563.59375 C422.034189,563.59375 423.689446,563.945309 425.183594,564.648438 L424.46582,566.523438 C422.952141,565.898434 421.536139,565.585938 420.217773,565.585938 C419.192378,565.585938 418.389163,565.788572 417.808105,566.193848 C417.227048,566.599123 416.936523,567.167965 416.936523,567.900391 C416.936523,568.525394 417.146482,569.003905 417.566406,569.335938 C417.98633,569.66797 418.826166,570.048826 420.085938,570.478516 C420.408205,570.595704 420.813474,570.732421 421.301758,570.888672 C422.92286,571.416018 424.070309,572.038571 424.744141,572.756348 C425.417972,573.474125 425.754883,574.443353 425.754883,575.664062 C425.735351,577.148445 425.20313,578.298336 424.158203,579.11377 C423.113276,579.929203 421.702157,580.336914 419.924805,580.336914 Z" id="Hollow-beneath-the-k" fill="#4A4A4A"></path>
        <path d="M191.6875,344.666992 L185.037109,329.198242 L184.480469,327.71875 L184.583008,333.021484 L184.583008,346 L182.209961,346 L182.209961,324.334961 L185.491211,324.334961 L193.035156,341.59082 L200.505859,324.334961 L203.699219,324.334961 L203.699219,346 L201.238281,346 L201.238281,332.962891 L201.34082,327.777344 L200.798828,329.256836 L194.163086,344.666992 L191.6875,344.666992 Z M211.243164,329.930664 L211.243164,346 L208.782227,346 L208.782227,329.930664 L211.243164,329.930664 Z M211.243164,324.085938 L211.243164,326.986328 L208.782227,326.986328 L208.782227,324.085938 L211.243164,324.085938 Z M222.112305,344.227539 C223.723641,344.227539 224.922359,343.709966 225.708496,342.674805 C226.494633,341.639643 226.887695,340.160166 226.887695,338.236328 C226.887695,336.068349 226.509281,334.435064 225.752441,333.336426 C224.995602,332.237787 223.772469,331.688477 222.083008,331.688477 C221.331051,331.688477 220.666995,331.849608 220.09082,332.171875 C219.514646,332.494142 219.050783,332.943356 218.699219,333.519531 C218.347654,334.095706 218.081544,334.75732 217.900879,335.504395 C217.720214,336.251469 217.629883,337.069331 217.629883,337.958008 C217.629883,339.208014 217.78369,340.291988 218.091309,341.209961 C218.398927,342.127934 218.894528,342.860349 219.578125,343.407227 C220.261722,343.954104 221.10644,344.227539 222.112305,344.227539 Z M226.931641,343.670898 C226.404294,344.481449 225.701176,345.125974 224.822266,345.604492 C223.943355,346.08301 222.961919,346.322266 221.87793,346.322266 C219.758778,346.322266 218.098639,345.567879 216.897461,344.059082 C215.696283,342.550285 215.095703,340.497083 215.095703,337.899414 C215.095703,335.418933 215.706049,333.414558 216.926758,331.88623 C218.147467,330.357903 219.783193,329.59375 221.833984,329.59375 C222.898443,329.59375 223.901851,329.825681 224.844238,330.289551 C225.786626,330.75342 226.492185,331.375973 226.960938,332.157227 L226.916992,330.765625 L226.916992,323.69043 L229.333984,323.543945 L229.333984,346 L227.253906,346 L226.931641,343.670898 Z M233.582031,352.972656 L233.582031,329.930664 L235.735352,329.930664 L235.969727,332.113281 C237.375984,330.433585 239.06542,329.59375 241.038086,329.59375 C242.502937,329.59375 243.743159,329.959957 244.758789,330.692383 C245.774419,331.424808 246.523923,332.416009 247.007324,333.666016 C247.490725,334.916022 247.732422,336.375968 247.732422,338.045898 C247.732422,339.647469 247.468753,341.070795 246.941406,342.315918 C246.41406,343.561041 245.640142,344.542477 244.619629,345.260254 C243.599116,345.978031 242.40528,346.336914 241.038086,346.336914 C240.002925,346.336914 239.031255,346.104983 238.123047,345.641113 C237.214839,345.177244 236.487307,344.564457 235.94043,343.802734 C235.999024,344.857427 236.02832,345.882808 236.02832,346.878906 L236.02832,352.811523 L233.582031,352.972656 Z M240.701172,344.271484 C241.443363,344.271484 242.107419,344.103029 242.693359,343.766113 C243.2793,343.429198 243.752928,342.967776 244.114258,342.381836 C244.475588,341.795896 244.749023,341.129398 244.93457,340.382324 C245.120118,339.63525 245.212891,338.827153 245.212891,337.958008 C245.212891,336.122061 244.827152,334.615729 244.055664,333.438965 C243.284176,332.262201 242.156257,331.673828 240.671875,331.673828 C237.566391,331.673828 236.013672,333.680644 236.013672,337.694336 C236.013672,339.872081 236.377438,341.51269 237.10498,342.616211 C237.832523,343.719732 239.031242,344.271484 240.701172,344.271484 Z M252.961914,338.001953 C252.961914,339.90626 253.384273,341.432123 254.229004,342.57959 C255.073735,343.727057 256.306633,344.300781 257.927734,344.300781 C259.529305,344.300781 260.737789,343.729498 261.553223,342.586914 C262.368656,341.44433 262.776367,339.90626 262.776367,337.972656 C262.776367,336.009756 262.373539,334.464361 261.567871,333.336426 C260.762203,332.20849 259.534188,331.644531 257.883789,331.644531 C256.282219,331.644531 255.061528,332.220697 254.22168,333.373047 C253.381832,334.525396 252.961914,336.06835 252.961914,338.001953 Z M265.310547,337.958008 C265.310547,340.448255 264.646491,342.467277 263.318359,344.015137 C261.990228,345.562996 260.154309,346.336914 257.810547,346.336914 C255.554676,346.336914 253.760261,345.555672 252.427246,343.993164 C251.094232,342.430656 250.427734,340.42384 250.427734,337.972656 C250.427734,335.472644 251.096673,333.45118 252.43457,331.908203 C253.772468,330.365227 255.608387,329.59375 257.942383,329.59375 C260.237316,329.59375 262.039056,330.367668 263.347656,331.915527 C264.656257,333.463387 265.310547,335.477527 265.310547,337.958008 Z M271.65332,329.930664 L271.65332,346 L269.192383,346 L269.192383,329.930664 L271.65332,329.930664 Z M271.65332,324.085938 L271.65332,326.986328 L269.192383,326.986328 L269.192383,324.085938 L271.65332,324.085938 Z M276.25293,346 L276.25293,329.930664 L278.303711,329.930664 L278.611328,332.230469 C279.246097,331.439449 280.039546,330.802249 280.991699,330.318848 C281.943852,329.835447 282.971674,329.59375 284.075195,329.59375 C285.930673,329.59375 287.30273,330.113764 288.191406,331.153809 C289.080083,332.193853 289.524414,333.792958 289.524414,335.951172 L289.524414,346 L287.078125,346 C287.078125,339.554655 287.073242,336.102541 287.063477,335.643555 C287.024414,334.27636 286.748538,333.275394 286.23584,332.640625 C285.723142,332.005856 284.866217,331.688477 283.665039,331.688477 C282.405267,331.688477 281.355473,331.991208 280.515625,332.59668 C279.675777,333.202151 279.128908,333.988276 278.875,334.955078 C278.777343,335.609378 278.728516,336.361324 278.728516,337.210938 L278.728516,346 L276.25293,346 Z M298.723633,346.292969 C297.141594,346.292969 296.018558,345.90723 295.354492,345.135742 C294.690426,344.364254 294.338867,343.119149 294.299805,341.400391 L294.299805,331.74707 L291.912109,331.74707 L292.014648,330.135742 L294.285156,329.930664 L295.120117,326.253906 L296.731445,326.195312 L296.731445,329.930664 L301.199219,329.930664 L301.199219,331.74707 L296.731445,331.74707 L296.731445,340.960938 C296.731445,342.181647 296.91699,343.041013 297.288086,343.539062 C297.659182,344.037112 298.293941,344.286133 299.192383,344.286133 C299.51465,344.286133 300.212885,344.208009 301.287109,344.051758 L301.389648,345.985352 C300.227533,346.190431 299.33887,346.292969 298.723633,346.292969 Z M318.791992,331.629883 C317.23925,331.629883 316.050297,332.164545 315.225098,333.233887 C314.399898,334.303228 313.987305,335.873037 313.987305,337.943359 C313.987305,342.181662 315.583968,344.300781 318.777344,344.300781 C319.568363,344.300781 320.264157,344.137209 320.864746,343.810059 C321.465335,343.482909 321.938963,343.023929 322.285645,342.433105 C322.632326,341.842282 322.891112,341.175785 323.062012,340.433594 C323.232911,339.691403 323.318359,338.866215 323.318359,337.958008 C323.318359,336.727533 323.174318,335.653325 322.88623,334.735352 C322.598143,333.817378 322.107425,333.070315 321.414062,332.494141 C320.7207,331.917966 319.846685,331.629883 318.791992,331.629883 Z M319.041016,329.59375 C320.466804,329.59375 321.69726,329.955075 322.732422,330.677734 C323.767583,331.400394 324.543943,332.38183 325.061523,333.62207 C325.579104,334.862311 325.837891,336.283195 325.837891,337.884766 C325.837891,339.54493 325.581546,341.004877 325.068848,342.264648 C324.55615,343.52442 323.77979,344.518063 322.739746,345.245605 C321.699702,345.973148 320.457038,346.336914 319.011719,346.336914 C317.94726,346.336914 316.97559,346.107424 316.09668,345.648438 C315.217769,345.189451 314.485354,344.564457 313.899414,343.773438 L313.650391,346 L311.555664,346 L311.555664,323.69043 L314.001953,323.543945 L314.001953,328.861328 C314.001953,330.169928 313.982422,331.292964 313.943359,332.230469 C314.509768,331.419918 315.244624,330.777834 316.147949,330.304199 C317.051274,329.830564 318.01562,329.59375 319.041016,329.59375 Z M335.59375,331.615234 C334.343744,331.615234 333.323246,332.057124 332.532227,332.940918 C331.741207,333.824711 331.277344,335.033195 331.140625,336.566406 L339.62207,336.566406 C339.62207,334.974601 339.263187,333.751469 338.54541,332.896973 C337.827633,332.042476 336.843756,331.615234 335.59375,331.615234 Z M336.077148,346.336914 C333.743152,346.336914 331.904792,345.594734 330.562012,344.110352 C329.219232,342.625969 328.547852,340.594739 328.547852,338.016602 C328.547852,335.526355 329.197259,333.507332 330.496094,331.959473 C331.794928,330.411613 333.503896,329.623047 335.623047,329.59375 C337.615244,329.59375 339.194818,330.274896 340.361816,331.637207 C341.528814,332.999519 342.112305,334.818348 342.112305,337.09375 C342.112305,337.210938 342.109863,337.42578 342.10498,337.738281 C342.100098,338.050783 342.097656,338.27539 342.097656,338.412109 L331.067383,338.412109 C331.09668,340.23829 331.567867,341.661616 332.480957,342.682129 C333.394048,343.702642 334.622063,344.212891 336.165039,344.212891 C337.864266,344.212891 339.568351,343.763676 341.277344,342.865234 L341.658203,344.842773 C340.027336,345.838872 338.167003,346.336914 336.077148,346.336914 Z M350.637695,346.292969 C349.055656,346.292969 347.932621,345.90723 347.268555,345.135742 C346.604489,344.364254 346.25293,343.119149 346.213867,341.400391 L346.213867,331.74707 L343.826172,331.74707 L343.928711,330.135742 L346.199219,329.930664 L347.03418,326.253906 L348.645508,326.195312 L348.645508,329.930664 L353.113281,329.930664 L353.113281,331.74707 L348.645508,331.74707 L348.645508,340.960938 C348.645508,342.181647 348.831053,343.041013 349.202148,343.539062 C349.573244,344.037112 350.208003,344.286133 351.106445,344.286133 C351.428713,344.286133 352.126948,344.208009 353.201172,344.051758 L353.303711,345.985352 C352.141596,346.190431 351.252933,346.292969 350.637695,346.292969 Z M369.783203,346 C367.527332,338.792933 366.130862,334.305673 365.59375,332.538086 C365.291014,333.61231 364.944338,334.774408 364.553711,336.024414 C364.163084,337.27442 363.821291,338.348628 363.52832,339.24707 C363.23535,340.145512 362.854495,341.30761 362.385742,342.733398 C361.91699,344.159187 361.560548,345.248043 361.316406,346 L358.679688,346 L354.094727,329.930664 L356.628906,329.930664 L360.071289,343.084961 C360.549807,341.522453 361.956043,337.137731 364.290039,329.930664 L367.058594,329.930664 C369.382824,337.293982 370.749998,341.664056 371.160156,343.041016 L374.558594,329.930664 L377.063477,329.930664 L372.43457,346 L369.783203,346 Z M385.603516,331.615234 C384.353509,331.615234 383.333012,332.057124 382.541992,332.940918 C381.750973,333.824711 381.28711,335.033195 381.150391,336.566406 L389.631836,336.566406 C389.631836,334.974601 389.272953,333.751469 388.555176,332.896973 C387.837399,332.042476 386.853522,331.615234 385.603516,331.615234 Z M386.086914,346.336914 C383.752918,346.336914 381.914557,345.594734 380.571777,344.110352 C379.228997,342.625969 378.557617,340.594739 378.557617,338.016602 C378.557617,335.526355 379.207025,333.507332 380.505859,331.959473 C381.804694,330.411613 383.513661,329.623047 385.632812,329.59375 C387.62501,329.59375 389.204584,330.274896 390.371582,331.637207 C391.53858,332.999519 392.12207,334.818348 392.12207,337.09375 C392.12207,337.210938 392.119629,337.42578 392.114746,337.738281 C392.109863,338.050783 392.107422,338.27539 392.107422,338.412109 L381.077148,338.412109 C381.106445,340.23829 381.577632,341.661616 382.490723,342.682129 C383.403813,343.702642 384.631828,344.212891 386.174805,344.212891 C387.874032,344.212891 389.578116,343.763676 391.287109,342.865234 L391.667969,344.842773 C390.037101,345.838872 388.176768,346.336914 386.086914,346.336914 Z M401.833984,331.615234 C400.583978,331.615234 399.563481,332.057124 398.772461,332.940918 C397.981441,333.824711 397.517579,335.033195 397.380859,336.566406 L405.862305,336.566406 C405.862305,334.974601 405.503422,333.751469 404.785645,332.896973 C404.067868,332.042476 403.083991,331.615234 401.833984,331.615234 Z M402.317383,346.336914 C399.983387,346.336914 398.145026,345.594734 396.802246,344.110352 C395.459466,342.625969 394.788086,340.594739 394.788086,338.016602 C394.788086,335.526355 395.437494,333.507332 396.736328,331.959473 C398.035163,330.411613 399.74413,329.623047 401.863281,329.59375 C403.855479,329.59375 405.435053,330.274896 406.602051,331.637207 C407.769049,332.999519 408.352539,334.818348 408.352539,337.09375 C408.352539,337.210938 408.350098,337.42578 408.345215,337.738281 C408.340332,338.050783 408.337891,338.27539 408.337891,338.412109 L397.307617,338.412109 C397.336914,340.23829 397.808101,341.661616 398.721191,342.682129 C399.634282,343.702642 400.862297,344.212891 402.405273,344.212891 C404.104501,344.212891 405.808585,343.763676 407.517578,342.865234 L407.898438,344.842773 C406.26757,345.838872 404.407237,346.336914 402.317383,346.336914 Z M411.750977,346 L411.750977,329.930664 L413.801758,329.930664 L414.109375,332.230469 C414.744144,331.439449 415.537593,330.802249 416.489746,330.318848 C417.441899,329.835447 418.469721,329.59375 419.573242,329.59375 C421.42872,329.59375 422.800777,330.113764 423.689453,331.153809 C424.578129,332.193853 425.022461,333.792958 425.022461,335.951172 L425.022461,346 L422.576172,346 C422.576172,339.554655 422.571289,336.102541 422.561523,335.643555 C422.522461,334.27636 422.246585,333.275394 421.733887,332.640625 C421.221189,332.005856 420.364264,331.688477 419.163086,331.688477 C417.903314,331.688477 416.85352,331.991208 416.013672,332.59668 C415.173824,333.202151 414.626954,333.988276 414.373047,334.955078 C414.27539,335.609378 414.226562,336.361324 414.226562,337.210938 L414.226562,346 L411.750977,346 Z M73.6650391,384.336914 C72.5712836,384.336914 71.5629929,384.219728 70.6401367,383.985352 C69.7172805,383.750975 68.9677763,383.448244 68.3916016,383.077148 L68.6992188,381.011719 C70.3300863,381.880864 71.9316328,382.31543 73.5039062,382.31543 C75.8867307,382.31543 77.1123043,381.475594 77.1806641,379.795898 C77.1806641,379.083004 76.9267604,378.521486 76.4189453,378.111328 C75.9111303,377.70117 74.9150465,377.24219 73.4306641,376.734375 L72.2148438,376.30957 C70.8085867,375.840818 69.8051788,375.259769 69.2045898,374.566406 C68.6040009,373.873043 68.2988282,373.008794 68.2890625,371.973633 C68.2890625,370.713861 68.7944285,369.668949 69.8051758,368.838867 C70.815923,368.008785 72.2001865,367.59375 73.9580078,367.59375 C75.7744231,367.59375 77.42968,367.945309 78.9238281,368.648438 L78.2060547,370.523438 C76.6923752,369.898434 75.2763738,369.585938 73.9580078,369.585938 C72.9326121,369.585938 72.1293974,369.788572 71.5483398,370.193848 C70.9672823,370.599123 70.6767578,371.167965 70.6767578,371.900391 C70.6767578,372.525394 70.8867167,373.003905 71.3066406,373.335938 C71.7265646,373.66797 72.5664,374.048826 73.8261719,374.478516 C74.1484391,374.595704 74.5537085,374.732421 75.0419922,374.888672 C76.663094,375.416018 77.8105435,376.038571 78.484375,376.756348 C79.1582065,377.474125 79.4951172,378.443353 79.4951172,379.664062 C79.4755858,381.148445 78.9433646,382.298336 77.8984375,383.11377 C76.8535104,383.929203 75.4423917,384.336914 73.6650391,384.336914 Z M93.6601562,384 L93.6601562,374.288086 C93.6601562,372.67675 93.4038112,371.504886 92.8911133,370.772461 C92.3784154,370.040035 91.4824283,369.673828 90.203125,369.673828 C88.9726501,369.673828 87.9350628,369.981442 87.090332,370.59668 C86.2456012,371.211917 85.6962903,372.007808 85.4423828,372.984375 C85.3544917,373.716801 85.3105469,374.532222 85.3105469,375.430664 L85.3105469,384 L82.8642578,384 L82.8642578,361.69043 L85.3105469,361.543945 L85.3105469,368.077148 C85.3105469,368.633792 85.2910158,369.322262 85.2519531,370.142578 C86.6289131,368.443351 88.4550667,367.59375 90.7304688,367.59375 C94.314471,367.59375 96.1064453,369.698221 96.1064453,373.907227 L96.1064453,384 L93.6601562,384 Z M100.911133,376.001953 C100.911133,377.90626 101.333492,379.432123 102.178223,380.57959 C103.022953,381.727057 104.255851,382.300781 105.876953,382.300781 C107.478524,382.300781 108.687008,381.729498 109.502441,380.586914 C110.317875,379.44433 110.725586,377.90626 110.725586,375.972656 C110.725586,374.009756 110.322758,372.464361 109.51709,371.336426 C108.711422,370.20849 107.483407,369.644531 105.833008,369.644531 C104.231437,369.644531 103.010746,370.220697 102.170898,371.373047 C101.33105,372.525396 100.911133,374.06835 100.911133,376.001953 Z M113.259766,375.958008 C113.259766,378.448255 112.59571,380.467277 111.267578,382.015137 C109.939446,383.562996 108.103527,384.336914 105.759766,384.336914 C103.503895,384.336914 101.709479,383.555672 100.376465,381.993164 C99.0434504,380.430656 98.3769531,378.42384 98.3769531,375.972656 C98.3769531,373.472644 99.0458917,371.45118 100.383789,369.908203 C101.721686,368.365227 103.557606,367.59375 105.891602,367.59375 C108.186535,367.59375 109.988275,368.367668 111.296875,369.915527 C112.605475,371.463387 113.259766,373.477527 113.259766,375.958008 Z M116.160156,378.638672 L116.160156,367.930664 L118.621094,367.930664 L118.621094,378.667969 C118.621094,379.371097 118.72119,379.966794 118.921387,380.455078 C119.121583,380.943362 119.409666,381.321776 119.785645,381.590332 C120.161623,381.858888 120.586423,382.051757 121.060059,382.168945 C121.533694,382.286133 122.078122,382.344727 122.693359,382.344727 C123.962897,382.344727 124.951657,382.066409 125.659668,381.509766 C126.367679,380.953122 126.72168,380.005866 126.72168,378.667969 L126.72168,367.930664 L129.182617,367.930664 L129.182617,378.638672 C129.182617,379.458988 129.065431,380.196286 128.831055,380.850586 C128.596679,381.504886 128.28174,382.049314 127.88623,382.483887 C127.490721,382.918459 127.014651,383.277342 126.458008,383.560547 C125.901364,383.843751 125.312991,384.048827 124.692871,384.175781 C124.072751,384.302735 123.406254,384.366211 122.693359,384.366211 C121.990231,384.366211 121.326175,384.302735 120.701172,384.175781 C120.076169,384.048827 119.482913,383.84131 118.921387,383.553223 C118.35986,383.265135 117.876467,382.903811 117.471191,382.469238 C117.065916,382.034666 116.746095,381.490238 116.511719,380.835938 C116.277343,380.181637 116.160156,379.449223 116.160156,378.638672 Z M137.151367,384.292969 C135.588859,384.292969 134.482913,383.873051 133.833496,383.033203 C133.184079,382.193355 132.859375,380.733409 132.859375,378.65332 L132.859375,361.69043 L135.291016,361.543945 L135.291016,377.686523 C135.291016,378.350589 135.29834,378.88281 135.312988,379.283203 C135.327637,379.683596 135.364258,380.076658 135.422852,380.462402 C135.481446,380.848146 135.55957,381.138671 135.657227,381.333984 C135.754883,381.529298 135.896483,381.707519 136.082031,381.868652 C136.267579,382.029786 136.489745,382.137207 136.748535,382.190918 C137.007326,382.244629 137.327147,382.271484 137.708008,382.271484 C138.020509,382.271484 138.635738,382.212891 139.553711,382.095703 L139.685547,384.043945 C138.679682,384.209962 137.834964,384.292969 137.151367,384.292969 Z M147.43457,382.227539 C149.045906,382.227539 150.244625,381.709966 151.030762,380.674805 C151.816898,379.639643 152.209961,378.160166 152.209961,376.236328 C152.209961,374.068349 151.831547,372.435064 151.074707,371.336426 C150.317867,370.237787 149.094735,369.688477 147.405273,369.688477 C146.653317,369.688477 145.989261,369.849608 145.413086,370.171875 C144.836911,370.494142 144.373049,370.943356 144.021484,371.519531 C143.66992,372.095706 143.403809,372.75732 143.223145,373.504395 C143.04248,374.251469 142.952148,375.069331 142.952148,375.958008 C142.952148,377.208014 143.105955,378.291988 143.413574,379.209961 C143.721193,380.127934 144.216793,380.860349 144.900391,381.407227 C145.583988,381.954104 146.428706,382.227539 147.43457,382.227539 Z M152.253906,381.670898 C151.72656,382.481449 151.023442,383.125974 150.144531,383.604492 C149.265621,384.08301 148.284185,384.322266 147.200195,384.322266 C145.081044,384.322266 143.420904,383.567879 142.219727,382.059082 C141.018549,380.550285 140.417969,378.497083 140.417969,375.899414 C140.417969,373.418933 141.028314,371.414558 142.249023,369.88623 C143.469733,368.357903 145.105458,367.59375 147.15625,367.59375 C148.220708,367.59375 149.224116,367.825681 150.166504,368.289551 C151.108891,368.75342 151.814451,369.375973 152.283203,370.157227 L152.239258,368.765625 L152.239258,361.69043 L154.65625,361.543945 L154.65625,384 L152.576172,384 L152.253906,381.670898 Z M165.217773,369.615234 C163.967767,369.615234 162.94727,370.057124 162.15625,370.940918 C161.36523,371.824711 160.901368,373.033195 160.764648,374.566406 L169.246094,374.566406 C169.246094,372.974601 168.887211,371.751469 168.169434,370.896973 C167.451657,370.042476 166.46778,369.615234 165.217773,369.615234 Z M165.701172,384.336914 C163.367176,384.336914 161.528815,383.594734 160.186035,382.110352 C158.843255,380.625969 158.171875,378.594739 158.171875,376.016602 C158.171875,373.526355 158.821283,371.507332 160.120117,369.959473 C161.418952,368.411613 163.127919,367.623047 165.24707,367.59375 C167.239268,367.59375 168.818842,368.274896 169.98584,369.637207 C171.152838,370.999519 171.736328,372.818348 171.736328,375.09375 C171.736328,375.210938 171.733887,375.42578 171.729004,375.738281 C171.724121,376.050783 171.72168,376.27539 171.72168,376.412109 L160.691406,376.412109 C160.720703,378.23829 161.19189,379.661616 162.10498,380.682129 C163.018071,381.702642 164.246086,382.212891 165.789062,382.212891 C167.48829,382.212891 169.192374,381.763676 170.901367,380.865234 L171.282227,382.842773 C169.651359,383.838872 167.791026,384.336914 165.701172,384.336914 Z M182.341797,367.78418 C182.781252,367.78418 183.181639,367.813476 183.542969,367.87207 L183.455078,370.12793 C183.005857,370.049804 182.615236,370.010742 182.283203,370.010742 C180.916009,370.010742 179.80518,370.486812 178.950684,371.438965 C178.096187,372.391118 177.668945,373.570305 177.668945,374.976562 L177.668945,384 L175.222656,384 C175.212891,374.136669 175.208008,368.780278 175.208008,367.930664 L177.244141,367.930664 L177.478516,370.816406 C178.035159,369.908199 178.74316,369.175784 179.602539,368.619141 C180.461918,368.062497 181.374995,367.78418 182.341797,367.78418 Z M190.852539,384.336914 C189.758784,384.336914 188.750493,384.219728 187.827637,383.985352 C186.904781,383.750975 186.155276,383.448244 185.579102,383.077148 L185.886719,381.011719 C187.517586,381.880864 189.119133,382.31543 190.691406,382.31543 C193.074231,382.31543 194.299804,381.475594 194.368164,379.795898 C194.368164,379.083004 194.11426,378.521486 193.606445,378.111328 C193.09863,377.70117 192.102546,377.24219 190.618164,376.734375 L189.402344,376.30957 C187.996087,375.840818 186.992679,375.259769 186.39209,374.566406 C185.791501,373.873043 185.486328,373.008794 185.476562,371.973633 C185.476562,370.713861 185.981929,369.668949 186.992676,368.838867 C188.003423,368.008785 189.387687,367.59375 191.145508,367.59375 C192.961923,367.59375 194.61718,367.945309 196.111328,368.648438 L195.393555,370.523438 C193.879875,369.898434 192.463874,369.585938 191.145508,369.585938 C190.120112,369.585938 189.316897,369.788572 188.73584,370.193848 C188.154782,370.599123 187.864258,371.167965 187.864258,371.900391 C187.864258,372.525394 188.074217,373.003905 188.494141,373.335938 C188.914065,373.66797 189.7539,374.048826 191.013672,374.478516 C191.335939,374.595704 191.741208,374.732421 192.229492,374.888672 C193.850594,375.416018 194.998044,376.038571 195.671875,376.756348 C196.345706,377.474125 196.682617,378.443353 196.682617,379.664062 C196.663086,381.148445 196.130865,382.298336 195.085938,383.11377 C194.04101,383.929203 192.629892,384.336914 190.852539,384.336914 Z M212.151367,382.359375 C213.313482,382.359375 214.336421,382.039554 215.220215,381.399902 C216.104008,380.760251 216.67285,379.898443 216.926758,378.814453 L216.926758,376.104492 C216.877929,376.104492 216.582522,376.128906 216.040527,376.177734 C215.498532,376.226563 215.144532,376.255859 214.978516,376.265625 C212.859364,376.451173 211.382328,376.797849 210.547363,377.305664 C209.712398,377.813479 209.294922,378.628901 209.294922,379.751953 C209.294922,380.611332 209.548826,381.26074 210.056641,381.700195 C210.564456,382.139651 211.262691,382.359375 212.151367,382.359375 Z M217.46875,384 C217.322265,383.374997 217.180665,382.701175 217.043945,381.978516 C216.155269,382.867192 215.320316,383.48242 214.539062,383.824219 C213.757809,384.166017 212.839849,384.336914 211.785156,384.336914 C210.281242,384.336914 209.072758,383.943852 208.159668,383.157715 C207.246577,382.371578 206.790039,381.241218 206.790039,379.766602 C206.790039,378.125968 207.412591,376.91016 208.657715,376.119141 C209.902838,375.328121 211.697254,374.834962 214.041016,374.639648 C214.363283,374.610351 214.849118,374.568848 215.498535,374.515137 C216.147952,374.461426 216.633787,374.419922 216.956055,374.390625 L216.956055,372.969727 C216.956055,371.836908 216.692385,370.997073 216.165039,370.450195 C215.637693,369.903318 214.807623,369.629883 213.674805,369.629883 C212.092766,369.629883 210.496102,370.020504 208.884766,370.801758 C208.835937,370.68457 208.708985,370.345218 208.503906,369.783691 C208.298827,369.222165 208.191406,368.931641 208.181641,368.912109 C208.894535,368.511717 209.741694,368.191896 210.723145,367.952637 C211.704595,367.713378 212.70312,367.59375 213.71875,367.59375 C215.720713,367.59375 217.16357,368.030757 218.047363,368.904785 C218.931157,369.778813 219.373047,371.265615 219.373047,373.365234 L219.373047,384 L217.46875,384 Z M223.591797,384 L223.591797,367.930664 L225.642578,367.930664 L225.950195,370.230469 C226.584964,369.439449 227.378413,368.802249 228.330566,368.318848 C229.28272,367.835447 230.310541,367.59375 231.414062,367.59375 C233.269541,367.59375 234.641597,368.113764 235.530273,369.153809 C236.41895,370.193853 236.863281,371.792958 236.863281,373.951172 L236.863281,384 L234.416992,384 C234.416992,377.554655 234.412109,374.102541 234.402344,373.643555 C234.363281,372.27636 234.087405,371.275394 233.574707,370.640625 C233.062009,370.005856 232.205084,369.688477 231.003906,369.688477 C229.744134,369.688477 228.69434,369.991208 227.854492,370.59668 C227.014644,371.202151 226.467775,371.988276 226.213867,372.955078 C226.11621,373.609378 226.067383,374.361324 226.067383,375.210938 L226.067383,384 L223.591797,384 Z M247.205078,382.227539 C248.816414,382.227539 250.015133,381.709966 250.80127,380.674805 C251.587406,379.639643 251.980469,378.160166 251.980469,376.236328 C251.980469,374.068349 251.602055,372.435064 250.845215,371.336426 C250.088375,370.237787 248.865243,369.688477 247.175781,369.688477 C246.423824,369.688477 245.759769,369.849608 245.183594,370.171875 C244.607419,370.494142 244.143556,370.943356 243.791992,371.519531 C243.440428,372.095706 243.174317,372.75732 242.993652,373.504395 C242.812987,374.251469 242.722656,375.069331 242.722656,375.958008 C242.722656,377.208014 242.876463,378.291988 243.184082,379.209961 C243.491701,380.127934 243.987301,380.860349 244.670898,381.407227 C245.354496,381.954104 246.199214,382.227539 247.205078,382.227539 Z M252.024414,381.670898 C251.497068,382.481449 250.79395,383.125974 249.915039,383.604492 C249.036128,384.08301 248.054693,384.322266 246.970703,384.322266 C244.851552,384.322266 243.191412,383.567879 241.990234,382.059082 C240.789056,380.550285 240.188477,378.497083 240.188477,375.899414 C240.188477,373.418933 240.798822,371.414558 242.019531,369.88623 C243.24024,368.357903 244.875966,367.59375 246.926758,367.59375 C247.991216,367.59375 248.994624,367.825681 249.937012,368.289551 C250.879399,368.75342 251.584959,369.375973 252.053711,370.157227 L252.009766,368.765625 L252.009766,361.69043 L254.426758,361.543945 L254.426758,384 L252.34668,384 L252.024414,381.670898 Z M271.287109,384.292969 C269.70507,384.292969 268.582035,383.90723 267.917969,383.135742 C267.253903,382.364254 266.902344,381.119149 266.863281,379.400391 L266.863281,369.74707 L264.475586,369.74707 L264.578125,368.135742 L266.848633,367.930664 L267.683594,364.253906 L269.294922,364.195312 L269.294922,367.930664 L273.762695,367.930664 L273.762695,369.74707 L269.294922,369.74707 L269.294922,378.960938 C269.294922,380.181647 269.480467,381.041013 269.851562,381.539062 C270.222658,382.037112 270.857417,382.286133 271.755859,382.286133 C272.078127,382.286133 272.776362,382.208009 273.850586,382.051758 L273.953125,383.985352 C272.79101,384.190431 271.902347,384.292969 271.287109,384.292969 Z M278.186523,376.001953 C278.186523,377.90626 278.608882,379.432123 279.453613,380.57959 C280.298344,381.727057 281.531242,382.300781 283.152344,382.300781 C284.753914,382.300781 285.962398,381.729498 286.777832,380.586914 C287.593266,379.44433 288.000977,377.90626 288.000977,375.972656 C288.000977,374.009756 287.598149,372.464361 286.79248,371.336426 C285.986812,370.20849 284.758797,369.644531 283.108398,369.644531 C281.506828,369.644531 280.286137,370.220697 279.446289,371.373047 C278.606441,372.525396 278.186523,374.06835 278.186523,376.001953 Z M290.535156,375.958008 C290.535156,378.448255 289.8711,380.467277 288.542969,382.015137 C287.214837,383.562996 285.378918,384.336914 283.035156,384.336914 C280.779286,384.336914 278.98487,383.555672 277.651855,381.993164 C276.318841,380.430656 275.652344,378.42384 275.652344,375.972656 C275.652344,373.472644 276.321282,371.45118 277.65918,369.908203 C278.997077,368.365227 280.832996,367.59375 283.166992,367.59375 C285.461926,367.59375 287.263665,368.367668 288.572266,369.915527 C289.880866,371.463387 290.535156,373.477527 290.535156,375.958008 Z M293.992188,390.972656 L293.992188,367.930664 L296.145508,367.930664 L296.379883,370.113281 C297.78614,368.433585 299.475576,367.59375 301.448242,367.59375 C302.913093,367.59375 304.153315,367.959957 305.168945,368.692383 C306.184575,369.424808 306.93408,370.416009 307.41748,371.666016 C307.900881,372.916022 308.142578,374.375968 308.142578,376.045898 C308.142578,377.647469 307.878909,379.070795 307.351562,380.315918 C306.824216,381.561041 306.050298,382.542477 305.029785,383.260254 C304.009272,383.978031 302.815437,384.336914 301.448242,384.336914 C300.413081,384.336914 299.441411,384.104983 298.533203,383.641113 C297.624995,383.177244 296.897464,382.564457 296.350586,381.802734 C296.40918,382.857427 296.438477,383.882808 296.438477,384.878906 L296.438477,390.811523 L293.992188,390.972656 Z M301.111328,382.271484 C301.853519,382.271484 302.517575,382.103029 303.103516,381.766113 C303.689456,381.429198 304.163084,380.967776 304.524414,380.381836 C304.885744,379.795896 305.159179,379.129398 305.344727,378.382324 C305.530274,377.63525 305.623047,376.827153 305.623047,375.958008 C305.623047,374.122061 305.237309,372.615729 304.46582,371.438965 C303.694332,370.262201 302.566414,369.673828 301.082031,369.673828 C297.976547,369.673828 296.423828,371.680644 296.423828,375.694336 C296.423828,377.872081 296.787594,379.51269 297.515137,380.616211 C298.242679,381.719732 299.441398,382.271484 301.111328,382.271484 Z M320.857422,376.001953 C320.857422,377.90626 321.279781,379.432123 322.124512,380.57959 C322.969243,381.727057 324.20214,382.300781 325.823242,382.300781 C327.424813,382.300781 328.633297,381.729498 329.44873,380.586914 C330.264164,379.44433 330.671875,377.90626 330.671875,375.972656 C330.671875,374.009756 330.269047,372.464361 329.463379,371.336426 C328.657711,370.20849 327.429696,369.644531 325.779297,369.644531 C324.177726,369.644531 322.957035,370.220697 322.117188,371.373047 C321.27734,372.525396 320.857422,374.06835 320.857422,376.001953 Z M333.206055,375.958008 C333.206055,378.448255 332.541999,380.467277 331.213867,382.015137 C329.885736,383.562996 328.049816,384.336914 325.706055,384.336914 C323.450184,384.336914 321.655768,383.555672 320.322754,381.993164 C318.989739,380.430656 318.323242,378.42384 318.323242,375.972656 C318.323242,373.472644 318.992181,371.45118 320.330078,369.908203 C321.667975,368.365227 323.503895,367.59375 325.837891,367.59375 C328.132824,367.59375 329.934564,368.367668 331.243164,369.915527 C332.551764,371.463387 333.206055,373.477527 333.206055,375.958008 Z M342.771484,363.257812 C341.755854,363.257812 341.06006,363.550778 340.684082,364.136719 C340.308104,364.722659 340.120117,365.738274 340.120117,367.183594 L340.120117,367.930664 L343.987305,367.930664 L343.987305,369.74707 L340.120117,369.74707 L340.120117,384 L337.673828,384 L337.673828,369.74707 L335.066406,369.74707 L335.271484,368.135742 L337.673828,367.930664 L337.673828,367.212891 C337.693359,365.142568 338.081539,363.641118 338.838379,362.708496 C339.595219,361.775874 340.818351,361.30957 342.507812,361.30957 C343.162113,361.30957 343.962886,361.382812 344.910156,361.529297 L344.749023,363.448242 C343.879878,363.321288 343.220705,363.257812 342.771484,363.257812 Z M353.948242,390.972656 L353.948242,367.930664 L356.101562,367.930664 L356.335938,370.113281 C357.742195,368.433585 359.431631,367.59375 361.404297,367.59375 C362.869148,367.59375 364.10937,367.959957 365.125,368.692383 C366.14063,369.424808 366.890134,370.416009 367.373535,371.666016 C367.856936,372.916022 368.098633,374.375968 368.098633,376.045898 C368.098633,377.647469 367.834964,379.070795 367.307617,380.315918 C366.780271,381.561041 366.006353,382.542477 364.98584,383.260254 C363.965327,383.978031 362.771491,384.336914 361.404297,384.336914 C360.369135,384.336914 359.397465,384.104983 358.489258,383.641113 C357.58105,383.177244 356.853518,382.564457 356.306641,381.802734 C356.365235,382.857427 356.394531,383.882808 356.394531,384.878906 L356.394531,390.811523 L353.948242,390.972656 Z M361.067383,382.271484 C361.809574,382.271484 362.47363,382.103029 363.05957,381.766113 C363.645511,381.429198 364.119139,380.967776 364.480469,380.381836 C364.841799,379.795896 365.115233,379.129398 365.300781,378.382324 C365.486329,377.63525 365.579102,376.827153 365.579102,375.958008 C365.579102,374.122061 365.193363,372.615729 364.421875,371.438965 C363.650387,370.262201 362.522468,369.673828 361.038086,369.673828 C357.932602,369.673828 356.379883,371.680644 356.379883,375.694336 C356.379883,377.872081 356.743649,379.51269 357.471191,380.616211 C358.198734,381.719732 359.397453,382.271484 361.067383,382.271484 Z M375.950195,382.359375 C377.11231,382.359375 378.135249,382.039554 379.019043,381.399902 C379.902836,380.760251 380.471678,379.898443 380.725586,378.814453 L380.725586,376.104492 C380.676758,376.104492 380.38135,376.128906 379.839355,376.177734 C379.297361,376.226563 378.94336,376.255859 378.777344,376.265625 C376.658193,376.451173 375.181157,376.797849 374.346191,377.305664 C373.511226,377.813479 373.09375,378.628901 373.09375,379.751953 C373.09375,380.611332 373.347654,381.26074 373.855469,381.700195 C374.363284,382.139651 375.061519,382.359375 375.950195,382.359375 Z M381.267578,384 C381.121093,383.374997 380.979493,382.701175 380.842773,381.978516 C379.954097,382.867192 379.119145,383.48242 378.337891,383.824219 C377.556637,384.166017 376.638677,384.336914 375.583984,384.336914 C374.080071,384.336914 372.871587,383.943852 371.958496,383.157715 C371.045406,382.371578 370.588867,381.241218 370.588867,379.766602 C370.588867,378.125968 371.21142,376.91016 372.456543,376.119141 C373.701666,375.328121 375.496082,374.834962 377.839844,374.639648 C378.162111,374.610351 378.647946,374.568848 379.297363,374.515137 C379.946781,374.461426 380.432616,374.419922 380.754883,374.390625 L380.754883,372.969727 C380.754883,371.836908 380.491214,370.997073 379.963867,370.450195 C379.436521,369.903318 378.606451,369.629883 377.473633,369.629883 C375.891594,369.629883 374.29493,370.020504 372.683594,370.801758 C372.634765,370.68457 372.507814,370.345218 372.302734,369.783691 C372.097655,369.222165 371.990234,368.931641 371.980469,368.912109 C372.693363,368.511717 373.540522,368.191896 374.521973,367.952637 C375.503423,367.713378 376.501948,367.59375 377.517578,367.59375 C379.519541,367.59375 380.962398,368.030757 381.846191,368.904785 C382.729985,369.778813 383.171875,371.265615 383.171875,373.365234 L383.171875,384 L381.267578,384 Z M387.390625,384 L387.390625,367.930664 L389.441406,367.930664 L389.749023,370.230469 C390.383792,369.439449 391.177241,368.802249 392.129395,368.318848 C393.081548,367.835447 394.109369,367.59375 395.212891,367.59375 C397.068369,367.59375 398.440425,368.113764 399.329102,369.153809 C400.217778,370.193853 400.662109,371.792958 400.662109,373.951172 L400.662109,384 L398.21582,384 C398.21582,377.554655 398.210938,374.102541 398.201172,373.643555 C398.162109,372.27636 397.886233,371.275394 397.373535,370.640625 C396.860837,370.005856 396.003912,369.688477 394.802734,369.688477 C393.542962,369.688477 392.493168,369.991208 391.65332,370.59668 C390.813472,371.202151 390.266603,371.988276 390.012695,372.955078 C389.915039,373.609378 389.866211,374.361324 389.866211,375.210938 L389.866211,384 L387.390625,384 Z M409.861328,384.292969 C408.279289,384.292969 407.156253,383.90723 406.492188,383.135742 C405.828122,382.364254 405.476563,381.119149 405.4375,379.400391 L405.4375,369.74707 L403.049805,369.74707 L403.152344,368.135742 L405.422852,367.930664 L406.257812,364.253906 L407.869141,364.195312 L407.869141,367.930664 L412.336914,367.930664 L412.336914,369.74707 L407.869141,369.74707 L407.869141,378.960938 C407.869141,380.181647 408.054686,381.041013 408.425781,381.539062 C408.796877,382.037112 409.431636,382.286133 410.330078,382.286133 C410.652345,382.286133 411.350581,382.208009 412.424805,382.051758 L412.527344,383.985352 C411.365229,384.190431 410.476566,384.292969 409.861328,384.292969 Z M419.924805,384.336914 C418.831049,384.336914 417.822759,384.219728 416.899902,383.985352 C415.977046,383.750975 415.227542,383.448244 414.651367,383.077148 L414.958984,381.011719 C416.589852,381.880864 418.191398,382.31543 419.763672,382.31543 C422.146496,382.31543 423.37207,381.475594 423.44043,379.795898 C423.44043,379.083004 423.186526,378.521486 422.678711,378.111328 C422.170896,377.70117 421.174812,377.24219 419.69043,376.734375 L418.474609,376.30957 C417.068352,375.840818 416.064944,375.259769 415.464355,374.566406 C414.863767,373.873043 414.558594,373.008794 414.548828,371.973633 C414.548828,370.713861 415.054194,369.668949 416.064941,368.838867 C417.075689,368.008785 418.459952,367.59375 420.217773,367.59375 C422.034189,367.59375 423.689446,367.945309 425.183594,368.648438 L424.46582,370.523438 C422.952141,369.898434 421.536139,369.585938 420.217773,369.585938 C419.192378,369.585938 418.389163,369.788572 417.808105,370.193848 C417.227048,370.599123 416.936523,371.167965 416.936523,371.900391 C416.936523,372.525394 417.146482,373.003905 417.566406,373.335938 C417.98633,373.66797 418.826166,374.048826 420.085938,374.478516 C420.408205,374.595704 420.813474,374.732421 421.301758,374.888672 C422.92286,375.416018 424.070309,376.038571 424.744141,376.756348 C425.417972,377.474125 425.754883,378.443353 425.754883,379.664062 C425.735351,381.148445 425.20313,382.298336 424.158203,383.11377 C423.113276,383.929203 421.702157,384.336914 419.924805,384.336914 Z" id="Midpoint-between-sho" fill="#4A4A4A"></path>
        <path d="M563.756896,108.014339 C570.157287,104.295589 577.577667,106.109065 580.65631,110.332698 C583.734954,114.556331 625.552795,216.19598 631.210021,230.117855 C640.922912,231.69598 646.723693,240.861995 649.231506,244.659847 C651.739318,248.457698 649.231506,266.279964 649.231506,269.019222 C649.231506,271.75848 658.13092,272.290706 660.798888,279.842464 C672.366271,279.842464 668.566467,286.777034 671.325256,289.169612 C674.084045,291.56219 674.62506,298.225276 674.62506,303.777034 C677.848693,303.777034 680.083068,309.245784 680.083068,311.331722 C680.083068,313.417659 681.668029,313.263362 684.545959,314.685237 C687.423888,316.107112 687.219787,322.996761 687.219787,323.214534 C687.219787,323.432308 691.155334,322.996761 691.155334,328.791683 C691.155334,334.586605 688.487365,344.91473 684.545959,348.049495 C680.604553,351.184261 680.135803,354.03973 676.200256,365.656917 C672.264709,377.274105 657.059631,412.149105 649.231506,412.149105 C641.403381,412.149105 626.489318,400.709651 621.497131,395.348323 C612.149474,399.44012 608.72174,395.348323 604.669006,395.348323 C600.616271,395.348323 581.495178,413.326839 576.274474,424.791683 C571.053771,436.256526 555.94049,441.494808 560.469787,446.699886 C564.999084,451.904964 604.669006,525.545589 608.72174,533.934261 C612.774474,542.322933 607.553771,555.856136 604.669006,560.842464 C601.78424,565.828792 597.147521,582.891292 592.811584,592.75262 C588.475646,602.613948 573.120178,628.063167 569.350646,638.860042 C565.581115,649.656917 563.756896,653.832698 576.274474,653.832698 C588.792053,653.832698 588.981506,665.611995 584.016882,668.426448 C580.707133,670.30275 572.858101,671.386735 560.469787,671.678401 C560.469787,678.194026 563.430073,681.451839 569.350646,681.451839 C578.231506,681.451839 584.016882,688.895198 584.016882,694.182308 C584.016882,699.469417 578.854553,703.871761 560.469787,703.871761 C542.085021,703.871761 532.626037,694.182308 529.169006,694.182308 C525.711974,694.182308 517.126037,696.836605 507.577209,696.836605 C498.028381,696.836605 501.192443,681.451839 501.192443,681.451839 C501.192443,681.451839 504.001037,668.549495 501.192443,659.291683 C498.383849,650.03387 507.577209,643.40887 507.577209,638.860042 C507.577209,634.311214 507.577209,626.643245 507.577209,622.451839 C507.577209,619.657568 510.760151,616.299495 517.126037,612.37762 C515.006245,610.406266 515.006245,606.916683 517.126037,601.90887 C520.305724,594.397151 536.196349,564.756526 536.196349,560.842464 C536.196349,556.928401 538.712433,551.990901 538.712433,547.869808 C538.712433,543.748714 499.932678,503.22723 487.28424,489.836605 C474.635803,476.44598 464.901428,463.809261 464.901428,451.410823 C464.901428,439.012386 469.254943,417.832698 469.254943,417.832698 C469.254943,417.832698 461.393615,406.608089 464.901428,400.709651 C468.40924,394.811214 490.881896,376.205745 495.858459,371.404964 C500.835021,366.604183 503.989318,358.662776 513.946349,344.91473 C523.903381,331.166683 541.071349,315.266292 555.94049,301.076839 C570.809631,286.887386 576.852599,286.887386 584.016882,282.674495 C581.505383,272.047542 586.528381,247.662776 592.811584,238.635433 C597.000386,232.617203 603.87148,229.251969 613.424865,228.53973 C577.707417,162.284521 558.545959,127.201188 555.94049,123.28973 C552.032287,117.422542 557.356506,111.733089 563.756896,108.014339 Z M616.663146,325.728206 C622.220763,331.636409 623.142638,342.021175 626.227599,346.176448 C628.28424,348.946631 635.217834,357.275732 647.028381,371.163753 C654.377339,362.313493 658.051818,356.793636 658.051818,354.604183 C658.051818,351.320003 655.243224,347.166683 658.051818,344.177425 C660.860412,341.188167 658.051818,334.861019 658.051818,333.574886 C658.051818,332.717464 659.20286,326.446631 661.504943,314.762386 C658.627339,315.923844 655.825907,316.504573 653.100646,316.504573 C650.375386,316.504573 647.796935,316.504573 645.365295,316.504573 C644.806701,319.210302 642.712951,320.563167 639.084045,320.563167 C633.640685,320.563167 636.868871,317.933824 634.594787,318.457698 C628.064513,320.563167 623.142638,322.913753 616.663146,325.728206 Z" id="Combined-Shape" fill="#000000" fill-rule="nonzero"></path>
        <rect id="Rectangle" stroke="#000000" stroke-width="4" fill-rule="nonzero" x="703" y="356" width="148" height="193"></rect>
        <path d="M741.275391,448.253906 C739.032541,448.253906 737.02247,447.737635 735.245117,446.705078 L736.083008,443.975586 C736.878585,444.415692 737.743973,444.771158 738.679199,445.041992 C739.614425,445.312827 740.526363,445.448242 741.415039,445.448242 C742.506841,445.448242 743.332028,445.213381 743.890625,444.743652 C744.449222,444.273923 744.728516,443.598963 744.728516,442.71875 C744.728516,441.550775 743.949878,440.742515 742.392578,440.293945 C742.282552,440.260091 741.973635,440.169109 741.46582,440.020996 C740.958005,439.872883 740.481936,439.729005 740.037598,439.589355 C739.593259,439.449706 739.273764,439.341797 739.079102,439.265625 C736.582344,438.385412 735.333984,436.743502 735.333984,434.339844 C735.333984,432.655591 735.932774,431.35645 737.130371,430.442383 C738.327968,429.528316 739.916982,429.071289 741.897461,429.071289 C744.140311,429.071289 746.074211,429.532547 747.699219,430.455078 L746.658203,432.96875 C744.999341,432.223955 743.458991,431.851562 742.037109,431.851562 C741.013016,431.851562 740.240725,432.031411 739.720215,432.391113 C739.199704,432.750816 738.922526,433.349605 738.888672,434.1875 C738.888672,435.220057 739.400711,435.892902 740.424805,436.206055 C740.627931,436.282227 741.127275,436.447264 741.922852,436.701172 C742.718428,436.955079 743.234699,437.120117 743.47168,437.196289 C745.17286,437.754886 746.389482,438.448889 747.121582,439.27832 C747.853682,440.107752 748.219727,441.263013 748.219727,442.744141 C748.219727,444.51303 747.593431,445.87353 746.34082,446.825684 C745.08821,447.777837 743.39975,448.253906 741.275391,448.253906 Z M754.745117,448 L754.745117,432.15625 L749.324219,432.15625 L749.324219,429.401367 L763.59375,429.401367 L763.59375,432.15625 L758.198242,432.15625 L758.198242,448 L754.745117,448 Z M765.510742,448 L765.510742,429.350586 L772.404297,429.350586 C773.343755,429.350586 774.158362,429.392903 774.848145,429.477539 C775.537927,429.562175 776.193845,429.716633 776.815918,429.940918 C777.437991,430.165203 777.941567,430.467772 778.32666,430.848633 C778.711753,431.229494 779.016438,431.726722 779.240723,432.340332 C779.465008,432.953942 779.577148,433.679683 779.577148,434.517578 C779.577148,436.988945 778.45574,438.613928 776.212891,439.392578 C776.669924,439.908857 777.236976,440.865227 777.914062,442.261719 L780.681641,448 L776.923828,448 L774.75293,443.137695 C773.931962,441.394197 773.424155,440.361655 773.229492,440.040039 C773.085611,440.031575 772.607426,440.027344 771.794922,440.027344 L768.913086,440.001953 L768.913086,448 L765.510742,448 Z M772.708984,437.539062 C774.029303,437.539062 774.977211,437.304202 775.552734,436.834473 C776.128258,436.364744 776.416016,435.60938 776.416016,434.568359 C776.416016,433.654292 776.124026,432.981447 775.540039,432.549805 C774.956052,432.118162 774.063157,431.902344 772.861328,431.902344 L768.913086,431.902344 L768.913086,437.526367 C769.04004,437.526367 769.670567,437.528483 770.804688,437.532715 C771.938808,437.536947 772.573567,437.539062 772.708984,437.539062 Z M783.385742,448 L783.385742,429.401367 L786.826172,429.401367 L786.826172,448 L783.385742,448 Z M790.926758,448 L790.926758,429.401367 L794.379883,429.401367 L794.379883,437.780273 C794.980797,436.984697 796.210114,435.49936 798.067871,433.324219 C799.925628,431.149078 801.032225,429.841474 801.387695,429.401367 L805.462891,429.401367 L798.429688,437.767578 L805.907227,448 L801.870117,448 L795.801758,439.65918 L794.379883,440.852539 L794.379883,448 L790.926758,448 Z M807.329102,448 L807.329102,429.401367 L818.602539,429.401367 L818.462891,432.130859 L810.769531,432.130859 L810.769531,436.929688 L818.082031,436.929688 L818.082031,439.65918 L810.769531,439.65918 L810.769531,445.257812 L818.742188,445.257812 L818.62793,448 L807.329102,448 Z M742.614746,479 L742.614746,476.791016 L752.428223,463.143555 L742.95752,463.143555 L742.95752,460.401367 L756.490723,460.401367 L756.490723,462.902344 L746.85498,476.257812 L756.554199,476.257812 L756.541504,479 L742.614746,479 Z M767.510254,476.460938 C769.312997,476.460938 770.673498,475.874843 771.591797,474.702637 C772.510096,473.53043 772.969238,471.873709 772.969238,469.732422 C772.969238,467.565744 772.510096,465.885748 771.591797,464.692383 C770.673498,463.499017 769.317229,462.902344 767.522949,462.902344 C765.720206,462.902344 764.355473,463.501133 763.428711,464.69873 C762.501948,465.896328 762.038574,467.574208 762.038574,469.732422 C762.038574,471.865245 762.499833,473.519851 763.422363,474.696289 C764.344894,475.872727 765.707511,476.460938 767.510254,476.460938 Z M767.497559,479.266602 C764.696112,479.266602 762.485034,478.41814 760.864258,476.721191 C759.243481,475.024243 758.433105,472.681981 758.433105,469.694336 C758.433105,466.689764 759.245597,464.345386 760.870605,462.661133 C762.495614,460.97688 764.708808,460.134766 767.510254,460.134766 C770.3117,460.134766 772.520662,460.978995 774.137207,462.66748 C775.753752,464.355965 776.562012,466.702459 776.562012,469.707031 C776.562012,472.677749 775.74952,475.013663 774.124512,476.714844 C772.499504,478.416024 770.290541,479.266602 767.497559,479.266602 Z M779.824707,479 L779.824707,460.401367 L783.480957,460.401367 C784.141117,461.433924 785.482575,463.515935 787.505371,466.647461 C789.528168,469.778987 790.759601,471.683265 791.199707,472.360352 C791.326661,472.555014 791.544595,472.882973 791.853516,473.344238 C792.162436,473.805504 792.38037,474.133463 792.507324,474.328125 C792.448079,471.425116 792.418457,469.91862 792.418457,469.808594 L792.418457,460.401367 L795.554199,460.401367 L795.554199,479 L791.847168,479 L783.455566,465.923828 L782.846191,464.920898 C782.9139,467.155285 782.947754,468.725256 782.947754,469.630859 L782.947754,479 L779.824707,479 Z M799.553223,479 L799.553223,460.401367 L810.82666,460.401367 L810.687012,463.130859 L802.993652,463.130859 L802.993652,467.929688 L810.306152,467.929688 L810.306152,470.65918 L802.993652,470.65918 L802.993652,476.257812 L810.966309,476.257812 L810.852051,479 L799.553223,479 Z" id="STRIKE-ZONE" fill="#000000"></path>
    </g>
</svg>